<svg viewBox="0 0 1200 630" xmlns="http://www.w3.org/2000/svg" width="1200" height="630">
  <defs>
    <linearGradient id="bg" x1="0%" y1="0%" x2="100%" y2="100%">
      <stop offset="0%" style="stop-color:#001040"/>
      <stop offset="60%" style="stop-color:#00081A"/>
      <stop offset="100%" style="stop-color:#001040"/>
    </linearGradient>
    <linearGradient id="vgrd" x1="0%" y1="0%" x2="0%" y2="100%">
      <stop offset="0%" style="stop-color:#00081A;stop-opacity:0"/>
      <stop offset="100%" style="stop-color:#00081A;stop-opacity:0.7"/>
    </linearGradient>
    <linearGradient id="goldbar" x1="0%" y1="0%" x2="100%" y2="0%">
      <stop offset="0%" style="stop-color:#BF0A30;stop-opacity:0"/>
      <stop offset="30%" style="stop-color:#BF0A30;stop-opacity:1"/>
      <stop offset="70%" style="stop-color:#BF0A30;stop-opacity:1"/>
      <stop offset="100%" style="stop-color:#BF0A30;stop-opacity:0"/>
    </linearGradient>
    <filter id="glow">
      <feGaussianBlur stdDeviation="3" result="blur"/>
      <feMerge><feMergeNode in="blur"/><feMergeNode in="SourceGraphic"/></feMerge>
    </filter>
    <filter id="textglow">
      <feGaussianBlur stdDeviation="6" result="blur"/>
      <feMerge><feMergeNode in="blur"/><feMergeNode in="SourceGraphic"/></feMerge>
    </filter>
  </defs>
  
  <!-- Background -->
  <rect width="1200" height="630" fill="url(#bg)"/>
  
  <!-- Decorative elements unique per school -->
  
        <rect x="100" y="-40" width="56" height="56" fill="#BF0A30" opacity="0.04" transform="rotate(45 128 -12)"/><rect x="100" y="40" width="56" height="56" fill="#BF0A30" opacity="0.04" transform="rotate(45 128 68)"/><rect x="100" y="120" width="56" height="56" fill="#BF0A30" opacity="0.04" transform="rotate(45 128 148)"/><rect x="100" y="200" width="56" height="56" fill="#BF0A30" opacity="0.04" transform="rotate(45 128 228)"/><rect x="100" y="280" width="56" height="56" fill="#BF0A30" opacity="0.04" transform="rotate(45 128 308)"/><rect x="100" y="360" width="56" height="56" fill="#BF0A30" opacity="0.04" transform="rotate(45 128 388)"/><rect x="100" y="440" width="56" height="56" fill="#BF0A30" opacity="0.04" transform="rotate(45 128 468)"/><rect x="100" y="520" width="56" height="56" fill="#BF0A30" opacity="0.04" transform="rotate(45 128 548)"/><rect x="100" y="600" width="56" height="56" fill="#BF0A30" opacity="0.04" transform="rotate(45 128 628)"/><rect x="100" y="680" width="56" height="56" fill="#BF0A30" opacity="0.04" transform="rotate(45 128 708)"/><rect x="180" y="-40" width="56" height="56" fill="#BF0A30" opacity="0.04" transform="rotate(45 208 -12)"/><rect x="180" y="40" width="56" height="56" fill="#BF0A30" opacity="0.04" transform="rotate(45 208 68)"/><rect x="180" y="120" width="56" height="56" fill="#BF0A30" opacity="0.04" transform="rotate(45 208 148)"/><rect x="180" y="200" width="56" height="56" fill="#BF0A30" opacity="0.04" transform="rotate(45 208 228)"/><rect x="180" y="280" width="56" height="56" fill="#BF0A30" opacity="0.04" transform="rotate(45 208 308)"/><rect x="180" y="360" width="56" height="56" fill="#BF0A30" opacity="0.04" transform="rotate(45 208 388)"/><rect x="180" y="440" width="56" height="56" fill="#BF0A30" opacity="0.04" transform="rotate(45 208 468)"/><rect x="180" y="520" width="56" height="56" fill="#BF0A30" opacity="0.04" transform="rotate(45 208 548)"/><rect x="180" y="600" width="56" height="56" fill="#BF0A30" opacity="0.04" transform="rotate(45 208 628)"/><rect x="180" y="680" width="56" height="56" fill="#BF0A30" opacity="0.04" transform="rotate(45 208 708)"/><rect x="260" y="-40" width="56" height="56" fill="#BF0A30" opacity="0.04" transform="rotate(45 288 -12)"/><rect x="260" y="40" width="56" height="56" fill="#BF0A30" opacity="0.04" transform="rotate(45 288 68)"/><rect x="260" y="120" width="56" height="56" fill="#BF0A30" opacity="0.04" transform="rotate(45 288 148)"/><rect x="260" y="200" width="56" height="56" fill="#BF0A30" opacity="0.04" transform="rotate(45 288 228)"/><rect x="260" y="280" width="56" height="56" fill="#BF0A30" opacity="0.04" transform="rotate(45 288 308)"/><rect x="260" y="360" width="56" height="56" fill="#BF0A30" opacity="0.04" transform="rotate(45 288 388)"/><rect x="260" y="440" width="56" height="56" fill="#BF0A30" opacity="0.04" transform="rotate(45 288 468)"/><rect x="260" y="520" width="56" height="56" fill="#BF0A30" opacity="0.04" transform="rotate(45 288 548)"/><rect x="260" y="600" width="56" height="56" fill="#BF0A30" opacity="0.04" transform="rotate(45 288 628)"/><rect x="260" y="680" width="56" height="56" fill="#BF0A30" opacity="0.04" transform="rotate(45 288 708)"/><rect x="340" y="-40" width="56" height="56" fill="#BF0A30" opacity="0.04" transform="rotate(45 368 -12)"/><rect x="340" y="40" width="56" height="56" fill="#BF0A30" opacity="0.04" transform="rotate(45 368 68)"/><rect x="340" y="120" width="56" height="56" fill="#BF0A30" opacity="0.04" transform="rotate(45 368 148)"/><rect x="340" y="200" width="56" height="56" fill="#BF0A30" opacity="0.04" transform="rotate(45 368 228)"/><rect x="340" y="280" width="56" height="56" fill="#BF0A30" opacity="0.04" transform="rotate(45 368 308)"/><rect x="340" y="360" width="56" height="56" fill="#BF0A30" opacity="0.04" transform="rotate(45 368 388)"/><rect x="340" y="440" width="56" height="56" fill="#BF0A30" opacity="0.04" transform="rotate(45 368 468)"/><rect x="340" y="520" width="56" height="56" fill="#BF0A30" opacity="0.04" transform="rotate(45 368 548)"/><rect x="340" y="600" width="56" height="56" fill="#BF0A30" opacity="0.04" transform="rotate(45 368 628)"/><rect x="340" y="680" width="56" height="56" fill="#BF0A30" opacity="0.04" transform="rotate(45 368 708)"/><rect x="420" y="-40" width="56" height="56" fill="#BF0A30" opacity="0.04" transform="rotate(45 448 -12)"/><rect x="420" y="40" width="56" height="56" fill="#BF0A30" opacity="0.04" transform="rotate(45 448 68)"/><rect x="420" y="120" width="56" height="56" fill="#BF0A30" opacity="0.04" transform="rotate(45 448 148)"/><rect x="420" y="200" width="56" height="56" fill="#BF0A30" opacity="0.04" transform="rotate(45 448 228)"/><rect x="420" y="280" width="56" height="56" fill="#BF0A30" opacity="0.04" transform="rotate(45 448 308)"/><rect x="420" y="360" width="56" height="56" fill="#BF0A30" opacity="0.04" transform="rotate(45 448 388)"/><rect x="420" y="440" width="56" height="56" fill="#BF0A30" opacity="0.04" transform="rotate(45 448 468)"/><rect x="420" y="520" width="56" height="56" fill="#BF0A30" opacity="0.04" transform="rotate(45 448 548)"/><rect x="420" y="600" width="56" height="56" fill="#BF0A30" opacity="0.04" transform="rotate(45 448 628)"/><rect x="420" y="680" width="56" height="56" fill="#BF0A30" opacity="0.04" transform="rotate(45 448 708)"/><rect x="500" y="-40" width="56" height="56" fill="#BF0A30" opacity="0.04" transform="rotate(45 528 -12)"/><rect x="500" y="40" width="56" height="56" fill="#BF0A30" opacity="0.04" transform="rotate(45 528 68)"/><rect x="500" y="120" width="56" height="56" fill="#BF0A30" opacity="0.04" transform="rotate(45 528 148)"/><rect x="500" y="200" width="56" height="56" fill="#BF0A30" opacity="0.04" transform="rotate(45 528 228)"/><rect x="500" y="280" width="56" height="56" fill="#BF0A30" opacity="0.04" transform="rotate(45 528 308)"/><rect x="500" y="360" width="56" height="56" fill="#BF0A30" opacity="0.04" transform="rotate(45 528 388)"/><rect x="500" y="440" width="56" height="56" fill="#BF0A30" opacity="0.04" transform="rotate(45 528 468)"/><rect x="500" y="520" width="56" height="56" fill="#BF0A30" opacity="0.04" transform="rotate(45 528 548)"/><rect x="500" y="600" width="56" height="56" fill="#BF0A30" opacity="0.04" transform="rotate(45 528 628)"/><rect x="500" y="680" width="56" height="56" fill="#BF0A30" opacity="0.04" transform="rotate(45 528 708)"/><rect x="580" y="-40" width="56" height="56" fill="#BF0A30" opacity="0.04" transform="rotate(45 608 -12)"/><rect x="580" y="40" width="56" height="56" fill="#BF0A30" opacity="0.04" transform="rotate(45 608 68)"/><rect x="580" y="120" width="56" height="56" fill="#BF0A30" opacity="0.04" transform="rotate(45 608 148)"/><rect x="580" y="200" width="56" height="56" fill="#BF0A30" opacity="0.04" transform="rotate(45 608 228)"/><rect x="580" y="280" width="56" height="56" fill="#BF0A30" opacity="0.04" transform="rotate(45 608 308)"/><rect x="580" y="360" width="56" height="56" fill="#BF0A30" opacity="0.04" transform="rotate(45 608 388)"/><rect x="580" y="440" width="56" height="56" fill="#BF0A30" opacity="0.04" transform="rotate(45 608 468)"/><rect x="580" y="520" width="56" height="56" fill="#BF0A30" opacity="0.04" transform="rotate(45 608 548)"/><rect x="580" y="600" width="56" height="56" fill="#BF0A30" opacity="0.04" transform="rotate(45 608 628)"/><rect x="580" y="680" width="56" height="56" fill="#BF0A30" opacity="0.04" transform="rotate(45 608 708)"/><rect x="660" y="-40" width="56" height="56" fill="#BF0A30" opacity="0.04" transform="rotate(45 688 -12)"/><rect x="660" y="40" width="56" height="56" fill="#BF0A30" opacity="0.04" transform="rotate(45 688 68)"/><rect x="660" y="120" width="56" height="56" fill="#BF0A30" opacity="0.04" transform="rotate(45 688 148)"/><rect x="660" y="200" width="56" height="56" fill="#BF0A30" opacity="0.04" transform="rotate(45 688 228)"/><rect x="660" y="280" width="56" height="56" fill="#BF0A30" opacity="0.04" transform="rotate(45 688 308)"/><rect x="660" y="360" width="56" height="56" fill="#BF0A30" opacity="0.04" transform="rotate(45 688 388)"/><rect x="660" y="440" width="56" height="56" fill="#BF0A30" opacity="0.04" transform="rotate(45 688 468)"/><rect x="660" y="520" width="56" height="56" fill="#BF0A30" opacity="0.04" transform="rotate(45 688 548)"/><rect x="660" y="600" width="56" height="56" fill="#BF0A30" opacity="0.04" transform="rotate(45 688 628)"/><rect x="660" y="680" width="56" height="56" fill="#BF0A30" opacity="0.04" transform="rotate(45 688 708)"/><rect x="740" y="-40" width="56" height="56" fill="#BF0A30" opacity="0.04" transform="rotate(45 768 -12)"/><rect x="740" y="40" width="56" height="56" fill="#BF0A30" opacity="0.04" transform="rotate(45 768 68)"/><rect x="740" y="120" width="56" height="56" fill="#BF0A30" opacity="0.04" transform="rotate(45 768 148)"/><rect x="740" y="200" width="56" height="56" fill="#BF0A30" opacity="0.04" transform="rotate(45 768 228)"/><rect x="740" y="280" width="56" height="56" fill="#BF0A30" opacity="0.04" transform="rotate(45 768 308)"/><rect x="740" y="360" width="56" height="56" fill="#BF0A30" opacity="0.04" transform="rotate(45 768 388)"/><rect x="740" y="440" width="56" height="56" fill="#BF0A30" opacity="0.04" transform="rotate(45 768 468)"/><rect x="740" y="520" width="56" height="56" fill="#BF0A30" opacity="0.04" transform="rotate(45 768 548)"/><rect x="740" y="600" width="56" height="56" fill="#BF0A30" opacity="0.04" transform="rotate(45 768 628)"/><rect x="740" y="680" width="56" height="56" fill="#BF0A30" opacity="0.04" transform="rotate(45 768 708)"/><rect x="820" y="-40" width="56" height="56" fill="#BF0A30" opacity="0.04" transform="rotate(45 848 -12)"/><rect x="820" y="40" width="56" height="56" fill="#BF0A30" opacity="0.04" transform="rotate(45 848 68)"/><rect x="820" y="120" width="56" height="56" fill="#BF0A30" opacity="0.04" transform="rotate(45 848 148)"/><rect x="820" y="200" width="56" height="56" fill="#BF0A30" opacity="0.04" transform="rotate(45 848 228)"/><rect x="820" y="280" width="56" height="56" fill="#BF0A30" opacity="0.04" transform="rotate(45 848 308)"/><rect x="820" y="360" width="56" height="56" fill="#BF0A30" opacity="0.04" transform="rotate(45 848 388)"/><rect x="820" y="440" width="56" height="56" fill="#BF0A30" opacity="0.04" transform="rotate(45 848 468)"/><rect x="820" y="520" width="56" height="56" fill="#BF0A30" opacity="0.04" transform="rotate(45 848 548)"/><rect x="820" y="600" width="56" height="56" fill="#BF0A30" opacity="0.04" transform="rotate(45 848 628)"/><rect x="820" y="680" width="56" height="56" fill="#BF0A30" opacity="0.04" transform="rotate(45 848 708)"/><rect x="900" y="-40" width="56" height="56" fill="#BF0A30" opacity="0.04" transform="rotate(45 928 -12)"/><rect x="900" y="40" width="56" height="56" fill="#BF0A30" opacity="0.04" transform="rotate(45 928 68)"/><rect x="900" y="120" width="56" height="56" fill="#BF0A30" opacity="0.04" transform="rotate(45 928 148)"/><rect x="900" y="200" width="56" height="56" fill="#BF0A30" opacity="0.04" transform="rotate(45 928 228)"/><rect x="900" y="280" width="56" height="56" fill="#BF0A30" opacity="0.04" transform="rotate(45 928 308)"/><rect x="900" y="360" width="56" height="56" fill="#BF0A30" opacity="0.04" transform="rotate(45 928 388)"/><rect x="900" y="440" width="56" height="56" fill="#BF0A30" opacity="0.04" transform="rotate(45 928 468)"/><rect x="900" y="520" width="56" height="56" fill="#BF0A30" opacity="0.04" transform="rotate(45 928 548)"/><rect x="900" y="600" width="56" height="56" fill="#BF0A30" opacity="0.04" transform="rotate(45 928 628)"/><rect x="900" y="680" width="56" height="56" fill="#BF0A30" opacity="0.04" transform="rotate(45 928 708)"/><rect x="980" y="-40" width="56" height="56" fill="#BF0A30" opacity="0.04" transform="rotate(45 1008 -12)"/><rect x="980" y="40" width="56" height="56" fill="#BF0A30" opacity="0.04" transform="rotate(45 1008 68)"/><rect x="980" y="120" width="56" height="56" fill="#BF0A30" opacity="0.04" transform="rotate(45 1008 148)"/><rect x="980" y="200" width="56" height="56" fill="#BF0A30" opacity="0.04" transform="rotate(45 1008 228)"/><rect x="980" y="280" width="56" height="56" fill="#BF0A30" opacity="0.04" transform="rotate(45 1008 308)"/><rect x="980" y="360" width="56" height="56" fill="#BF0A30" opacity="0.04" transform="rotate(45 1008 388)"/><rect x="980" y="440" width="56" height="56" fill="#BF0A30" opacity="0.04" transform="rotate(45 1008 468)"/><rect x="980" y="520" width="56" height="56" fill="#BF0A30" opacity="0.04" transform="rotate(45 1008 548)"/><rect x="980" y="600" width="56" height="56" fill="#BF0A30" opacity="0.04" transform="rotate(45 1008 628)"/><rect x="980" y="680" width="56" height="56" fill="#BF0A30" opacity="0.04" transform="rotate(45 1008 708)"/><rect x="1060" y="-40" width="56" height="56" fill="#BF0A30" opacity="0.04" transform="rotate(45 1088 -12)"/><rect x="1060" y="40" width="56" height="56" fill="#BF0A30" opacity="0.04" transform="rotate(45 1088 68)"/><rect x="1060" y="120" width="56" height="56" fill="#BF0A30" opacity="0.04" transform="rotate(45 1088 148)"/><rect x="1060" y="200" width="56" height="56" fill="#BF0A30" opacity="0.04" transform="rotate(45 1088 228)"/><rect x="1060" y="280" width="56" height="56" fill="#BF0A30" opacity="0.04" transform="rotate(45 1088 308)"/><rect x="1060" y="360" width="56" height="56" fill="#BF0A30" opacity="0.04" transform="rotate(45 1088 388)"/><rect x="1060" y="440" width="56" height="56" fill="#BF0A30" opacity="0.04" transform="rotate(45 1088 468)"/><rect x="1060" y="520" width="56" height="56" fill="#BF0A30" opacity="0.04" transform="rotate(45 1088 548)"/><rect x="1060" y="600" width="56" height="56" fill="#BF0A30" opacity="0.04" transform="rotate(45 1088 628)"/><rect x="1060" y="680" width="56" height="56" fill="#BF0A30" opacity="0.04" transform="rotate(45 1088 708)"/><rect x="1140" y="-40" width="56" height="56" fill="#BF0A30" opacity="0.04" transform="rotate(45 1168 -12)"/><rect x="1140" y="40" width="56" height="56" fill="#BF0A30" opacity="0.04" transform="rotate(45 1168 68)"/><rect x="1140" y="120" width="56" height="56" fill="#BF0A30" opacity="0.04" transform="rotate(45 1168 148)"/><rect x="1140" y="200" width="56" height="56" fill="#BF0A30" opacity="0.04" transform="rotate(45 1168 228)"/><rect x="1140" y="280" width="56" height="56" fill="#BF0A30" opacity="0.04" transform="rotate(45 1168 308)"/><rect x="1140" y="360" width="56" height="56" fill="#BF0A30" opacity="0.04" transform="rotate(45 1168 388)"/><rect x="1140" y="440" width="56" height="56" fill="#BF0A30" opacity="0.04" transform="rotate(45 1168 468)"/><rect x="1140" y="520" width="56" height="56" fill="#BF0A30" opacity="0.04" transform="rotate(45 1168 548)"/><rect x="1140" y="600" width="56" height="56" fill="#BF0A30" opacity="0.04" transform="rotate(45 1168 628)"/><rect x="1140" y="680" width="56" height="56" fill="#BF0A30" opacity="0.04" transform="rotate(45 1168 708)"/>
        <rect x="0" y="0" width="1200" height="630" fill="url(#vgrd)"/>
        <circle cx="180" cy="315" r="240" fill="#BF0A30" opacity="0.06"/>
        
  
  <!-- Bottom gradient overlay for text legibility -->
  <rect x="0" y="320" width="1200" height="310" fill="url(#vgrd)" opacity="0.5"/>
  
  <!-- Left accent bar -->
  <rect x="60" y="200" width="4" height="230" fill="#BF0A30" opacity="0.8" rx="2"/>
  
  <!-- HOMECOMING wordmark - small top badge -->
  <rect x="60" y="100" width="220" height="32" rx="4" fill="#BF0A30" opacity="0.15"/>
  <rect x="60" y="100" width="220" height="32" rx="4" fill="none" stroke="#BF0A30" stroke-width="1" opacity="0.4"/>
  <text x="170" y="122" font-family="'Courier New', Courier, monospace" font-size="13" 
        font-weight="700" letter-spacing="5" fill="#BF0A30" opacity="0.9" text-anchor="middle">HOMECOMING</text>
  
  <!-- School short name - large ghost text -->
  
  <!-- Main school name -->
  <text x="76" y="290" 
        font-family="Georgia, 'Times New Roman', serif" 
        font-size="52" font-weight="700" 
        fill="#FFFFFF" opacity="0.97" 
        filter="url(#textglow)"
        letter-spacing="-0.5">Jarvis Christian University</text>
  
  <!-- Gold divider line -->
  <rect x="76" y="310" width="500" height="2" fill="url(#goldbar)" opacity="0.7"/>
  
  <!-- City + State + Year Founded -->
  <text x="76" y="350" 
        font-family="'Courier New', Courier, monospace" 
        font-size="16" letter-spacing="3" 
        fill="#BF0A30" opacity="0.85">HAWKINS, TX  ·  EST. 1912</text>
  
  <!-- HBCU badge -->
  <rect x="76" y="390" width="94" height="28" rx="3" fill="#BF0A30" opacity="0.2"/>
  <rect x="76" y="390" width="94" height="28" rx="3" fill="none" stroke="#BF0A30" stroke-width="1" opacity="0.5"/>
  <text x="123" y="409" 
        font-family="'Courier New', Courier, monospace" 
        font-size="11" font-weight="700" letter-spacing="3" 
        fill="#BF0A30" text-anchor="middle">HBCU</text>
  
  <!-- SavorBLK attribution bottom-right -->
  <text x="1140" y="610" 
        font-family="'Courier New', Courier, monospace" 
        font-size="11" letter-spacing="2" 
        fill="#BF0A30" opacity="0.35" text-anchor="end">SAVORBLK</text>
  
  <!-- Subtle corner ornament top-right -->
  <line x1="1140" y1="30" x2="1140" y2="80" stroke="#BF0A30" stroke-width="1" opacity="0.3"/>
  <line x1="1090" y1="30" x2="1140" y2="30" stroke="#BF0A30" stroke-width="1" opacity="0.3"/>
  <line x1="1140" y1="600" x2="1140" y2="550" stroke="#BF0A30" stroke-width="1" opacity="0.15"/>
  <line x1="1090" y1="600" x2="1140" y2="600" stroke="#BF0A30" stroke-width="1" opacity="0.15"/>
  <line x1="60" y1="600" x2="60" y2="550" stroke="#BF0A30" stroke-width="1" opacity="0.15"/>
  <line x1="60" y1="600" x2="110" y2="600" stroke="#BF0A30" stroke-width="1" opacity="0.15"/>

</svg>